<svg xmlns="http://www.w3.org/2000/svg" xmlns:xlink="http://www.w3.org/1999/xlink" width="224" zoomAndPan="magnify" viewBox="0 0 168 61.499998" height="82" preserveAspectRatio="xMidYMid meet" version="1.0"><defs><g/><clipPath id="608c778264"><path d="M 0.675781 0 L 167.320312 0 L 167.320312 61.003906 L 0.675781 61.003906 Z M 0.675781 0 " clip-rule="nonzero"/></clipPath><clipPath id="3b8f3c9c76"><path d="M 29.023438 18.097656 L 68.449219 18.097656 L 68.449219 42.644531 L 29.023438 42.644531 Z M 29.023438 18.097656 " clip-rule="nonzero"/></clipPath></defs><g clip-path="url(#608c778264)"><path fill="#ffffff" d="M 0.675781 0 L 167.324219 0 L 167.324219 61.003906 L 0.675781 61.003906 Z M 0.675781 0 " fill-opacity="1" fill-rule="nonzero"/><path fill="#3e63dd" d="M 0.675781 0 L 167.324219 0 L 167.324219 61.003906 L 0.675781 61.003906 Z M 0.675781 0 " fill-opacity="1" fill-rule="nonzero"/></g><path fill="#ffffff" d="M 38.105469 38.789062 C 35.4375 38.789062 33.203125 36.679688 33.152344 34.015625 C 33.101562 31.285156 35.304688 29.050781 38.023438 29.050781 C 38.101562 29.050781 38.203125 29.058594 38.308594 29.066406 L 38.3125 29.066406 C 39.742188 29.175781 41.054688 28.285156 41.484375 26.917969 C 42.289062 24.144531 44.867188 22.207031 47.753906 22.207031 C 49.839844 22.207031 51.753906 23.175781 53.003906 24.871094 C 53.710938 25.828125 54.917969 26.277344 56.078125 26.011719 C 56.570312 25.902344 57.058594 25.84375 57.519531 25.84375 C 61.121094 25.84375 64.046875 28.800781 63.992188 32.417969 C 63.9375 35.96875 60.972656 38.789062 57.421875 38.789062 Z M 38.105469 38.789062 " fill-opacity="1" fill-rule="nonzero"/><g clip-path="url(#3b8f3c9c76)"><path fill="#ffffff" d="M 57.519531 42.902344 L 38.023438 42.902344 C 33.070312 42.902344 29.042969 38.871094 29.042969 33.921875 C 29.042969 29.039062 32.957031 25.050781 37.816406 24.941406 C 39.375 20.871094 43.34375 18.097656 47.75 18.097656 C 50.871094 18.097656 53.851562 19.496094 55.867188 21.871094 C 56.421875 21.78125 56.976562 21.734375 57.515625 21.734375 C 63.351562 21.734375 68.101562 26.484375 68.101562 32.320312 C 68.101562 38.152344 63.351562 42.902344 57.519531 42.902344 Z M 38.023438 27.164062 C 34.261719 27.164062 31.210938 30.25 31.265625 34.023438 C 31.324219 37.730469 34.417969 40.675781 38.125 40.675781 L 57.410156 40.675781 C 62.011719 40.675781 65.832031 37 65.875 32.398438 C 65.921875 27.753906 62.15625 23.957031 57.519531 23.957031 C 56.914062 23.957031 56.289062 24.03125 55.660156 24.171875 C 55.230469 24.269531 54.78125 24.101562 54.519531 23.75 C 52.910156 21.570312 50.445312 20.320312 47.753906 20.320312 C 44.03125 20.320312 40.710938 22.816406 39.675781 26.390625 C 39.527344 26.894531 39.050781 27.226562 38.527344 27.191406 C 38.3125 27.175781 38.167969 27.164062 38.023438 27.164062 Z M 38.023438 27.164062 " fill-opacity="1" fill-rule="nonzero"/></g><g fill="#ffffff" fill-opacity="1"><g transform="translate(84.764014, 34.965723)"><g><path d="M 6.375 0 L 3.6875 -3.703125 L 3.6875 0 L 0.984375 0 L 0.984375 -11.703125 L 3.6875 -11.703125 L 3.6875 -5.234375 L 6.359375 -8.828125 L 9.6875 -8.828125 L 6.03125 -4.390625 L 9.71875 0 Z M 6.375 0 "/></g></g></g><g fill="#ffffff" fill-opacity="1"><g transform="translate(94.217508, 34.965723)"><g><path d="M 9.6875 -8.828125 L 9.6875 0 L 6.984375 0 L 6.984375 -1.203125 C 6.710938 -0.804688 6.34375 -0.488281 5.875 -0.25 C 5.40625 -0.0195312 4.882812 0.09375 4.3125 0.09375 C 3.644531 0.09375 3.050781 -0.0546875 2.53125 -0.359375 C 2.007812 -0.660156 1.609375 -1.09375 1.328125 -1.65625 C 1.046875 -2.226562 0.90625 -2.898438 0.90625 -3.671875 L 0.90625 -8.828125 L 3.59375 -8.828125 L 3.59375 -4.03125 C 3.59375 -3.4375 3.742188 -2.976562 4.046875 -2.65625 C 4.347656 -2.332031 4.757812 -2.171875 5.28125 -2.171875 C 5.8125 -2.171875 6.226562 -2.332031 6.53125 -2.65625 C 6.832031 -2.976562 6.984375 -3.4375 6.984375 -4.03125 L 6.984375 -8.828125 Z M 9.6875 -8.828125 "/></g></g></g><g fill="#ffffff" fill-opacity="1"><g transform="translate(104.556307, 34.965723)"><g><path d="M 12.234375 -8.921875 C 13.335938 -8.921875 14.210938 -8.585938 14.859375 -7.921875 C 15.503906 -7.253906 15.828125 -6.332031 15.828125 -5.15625 L 15.828125 0 L 13.140625 0 L 13.140625 -4.796875 C 13.140625 -5.359375 12.988281 -5.796875 12.6875 -6.109375 C 12.382812 -6.421875 11.972656 -6.578125 11.453125 -6.578125 C 10.921875 -6.578125 10.503906 -6.421875 10.203125 -6.109375 C 9.898438 -5.796875 9.75 -5.359375 9.75 -4.796875 L 9.75 0 L 7.0625 0 L 7.0625 -4.796875 C 7.0625 -5.359375 6.910156 -5.796875 6.609375 -6.109375 C 6.316406 -6.421875 5.90625 -6.578125 5.375 -6.578125 C 4.84375 -6.578125 4.425781 -6.421875 4.125 -6.109375 C 3.832031 -5.796875 3.6875 -5.359375 3.6875 -4.796875 L 3.6875 0 L 0.984375 0 L 0.984375 -8.828125 L 3.6875 -8.828125 L 3.6875 -7.71875 C 3.957031 -8.082031 4.3125 -8.375 4.75 -8.59375 C 5.195312 -8.8125 5.703125 -8.921875 6.265625 -8.921875 C 6.929688 -8.921875 7.523438 -8.773438 8.046875 -8.484375 C 8.566406 -8.203125 8.972656 -7.800781 9.265625 -7.28125 C 9.566406 -7.757812 9.984375 -8.148438 10.515625 -8.453125 C 11.046875 -8.765625 11.617188 -8.921875 12.234375 -8.921875 Z M 12.234375 -8.921875 "/></g></g></g><g fill="#ffffff" fill-opacity="1"><g transform="translate(120.981556, 34.965723)"><g><path d="M 5 0.125 C 4.132812 0.125 3.351562 -0.0546875 2.65625 -0.421875 C 1.96875 -0.796875 1.425781 -1.320312 1.03125 -2 C 0.632812 -2.6875 0.4375 -3.488281 0.4375 -4.40625 C 0.4375 -5.3125 0.632812 -6.109375 1.03125 -6.796875 C 1.4375 -7.492188 1.988281 -8.023438 2.6875 -8.390625 C 3.382812 -8.765625 4.164062 -8.953125 5.03125 -8.953125 C 5.894531 -8.953125 6.671875 -8.765625 7.359375 -8.390625 C 8.054688 -8.023438 8.601562 -7.492188 9 -6.796875 C 9.40625 -6.109375 9.609375 -5.3125 9.609375 -4.40625 C 9.609375 -3.5 9.40625 -2.703125 9 -2.015625 C 8.59375 -1.328125 8.039062 -0.796875 7.34375 -0.421875 C 6.644531 -0.0546875 5.863281 0.125 5 0.125 Z M 5 -2.21875 C 5.507812 -2.21875 5.945312 -2.40625 6.3125 -2.78125 C 6.675781 -3.164062 6.859375 -3.707031 6.859375 -4.40625 C 6.859375 -5.113281 6.679688 -5.65625 6.328125 -6.03125 C 5.972656 -6.414062 5.539062 -6.609375 5.03125 -6.609375 C 4.5 -6.609375 4.054688 -6.421875 3.703125 -6.046875 C 3.359375 -5.671875 3.1875 -5.125 3.1875 -4.40625 C 3.1875 -3.707031 3.359375 -3.164062 3.703125 -2.78125 C 4.046875 -2.40625 4.476562 -2.21875 5 -2.21875 Z M 5 -2.21875 "/></g></g></g></svg>