<svg xmlns="http://www.w3.org/2000/svg" xmlns:xlink="http://www.w3.org/1999/xlink" width="224" zoomAndPan="magnify" viewBox="0 0 168 61.499998" height="82" preserveAspectRatio="xMidYMid meet" version="1.0"><defs><g/><clipPath id="b0ed5d7dfc"><path d="M 0.675781 0 L 167.320312 0 L 167.320312 61.003906 L 0.675781 61.003906 Z M 0.675781 0 " clip-rule="nonzero"/></clipPath><clipPath id="ac72381c4b"><path d="M 41.296875 18.097656 L 80.722656 18.097656 L 80.722656 42.644531 L 41.296875 42.644531 Z M 41.296875 18.097656 " clip-rule="nonzero"/></clipPath></defs><g clip-path="url(#b0ed5d7dfc)"><path fill="#ffffff" d="M 0.675781 0 L 167.324219 0 L 167.324219 61.003906 L 0.675781 61.003906 Z M 0.675781 0 " fill-opacity="1" fill-rule="nonzero"/><path fill="#3e63dd" d="M 0.675781 0 L 167.324219 0 L 167.324219 61.003906 L 0.675781 61.003906 Z M 0.675781 0 " fill-opacity="1" fill-rule="nonzero"/></g><path fill="#ffffff" d="M 50.378906 38.789062 C 47.710938 38.789062 45.480469 36.679688 45.429688 34.015625 C 45.375 31.285156 47.582031 29.050781 50.296875 29.050781 C 50.375 29.050781 50.476562 29.058594 50.582031 29.066406 L 50.589844 29.066406 C 52.015625 29.175781 53.332031 28.285156 53.761719 26.917969 C 54.5625 24.144531 57.140625 22.207031 60.027344 22.207031 C 62.113281 22.207031 64.027344 23.175781 65.277344 24.871094 C 65.988281 25.828125 67.191406 26.277344 68.355469 26.011719 C 68.847656 25.902344 69.332031 25.84375 69.792969 25.84375 C 73.394531 25.84375 76.320312 28.800781 76.265625 32.417969 C 76.210938 35.96875 73.246094 38.789062 69.695312 38.789062 Z M 50.378906 38.789062 " fill-opacity="1" fill-rule="nonzero"/><g clip-path="url(#ac72381c4b)"><path fill="#ffffff" d="M 69.792969 42.902344 L 50.296875 42.902344 C 45.34375 42.902344 41.316406 38.871094 41.316406 33.921875 C 41.316406 29.039062 45.234375 25.050781 50.089844 24.941406 C 51.648438 20.871094 55.617188 18.097656 60.027344 18.097656 C 63.144531 18.097656 66.128906 19.496094 68.140625 21.871094 C 68.699219 21.78125 69.25 21.734375 69.792969 21.734375 C 75.628906 21.734375 80.375 26.484375 80.375 32.320312 C 80.375 38.152344 75.628906 42.902344 69.792969 42.902344 Z M 50.296875 27.164062 C 46.539062 27.164062 43.484375 30.25 43.542969 34.023438 C 43.597656 37.730469 46.691406 40.675781 50.398438 40.675781 L 69.6875 40.675781 C 74.289062 40.675781 78.105469 37 78.152344 32.398438 C 78.195312 27.753906 74.429688 23.957031 69.792969 23.957031 C 69.191406 23.957031 68.566406 24.03125 67.9375 24.171875 C 67.503906 24.269531 67.058594 24.101562 66.796875 23.75 C 65.1875 21.570312 62.71875 20.320312 60.027344 20.320312 C 56.308594 20.320312 52.984375 22.816406 51.949219 26.390625 C 51.804688 26.894531 51.324219 27.226562 50.804688 27.191406 C 50.589844 27.175781 50.445312 27.164062 50.296875 27.164062 Z M 50.296875 27.164062 " fill-opacity="1" fill-rule="nonzero"/></g><g fill="#ffffff" fill-opacity="1"><g transform="translate(91.639821, 33.481261)"><g><path d="M 3.578125 0 L 2.0625 -2.078125 L 2.0625 0 L 0.546875 0 L 0.546875 -6.5625 L 2.0625 -6.5625 L 2.0625 -2.9375 L 3.5625 -4.953125 L 5.4375 -4.953125 L 3.375 -2.46875 L 5.453125 0 Z M 3.578125 0 "/></g></g></g><g fill="#ffffff" fill-opacity="1"><g transform="translate(96.948535, 33.481261)"><g><path d="M 5.4375 -4.953125 L 5.4375 0 L 3.921875 0 L 3.921875 -0.671875 C 3.765625 -0.453125 3.554688 -0.273438 3.296875 -0.140625 C 3.035156 -0.015625 2.742188 0.046875 2.421875 0.046875 C 2.046875 0.046875 1.710938 -0.0351562 1.421875 -0.203125 C 1.128906 -0.367188 0.898438 -0.609375 0.734375 -0.921875 C 0.578125 -1.242188 0.5 -1.625 0.5 -2.0625 L 0.5 -4.953125 L 2.015625 -4.953125 L 2.015625 -2.265625 C 2.015625 -1.929688 2.097656 -1.671875 2.265625 -1.484375 C 2.441406 -1.304688 2.675781 -1.21875 2.96875 -1.21875 C 3.257812 -1.21875 3.488281 -1.304688 3.65625 -1.484375 C 3.832031 -1.671875 3.921875 -1.929688 3.921875 -2.265625 L 3.921875 -4.953125 Z M 5.4375 -4.953125 "/></g></g></g><g fill="#ffffff" fill-opacity="1"><g transform="translate(102.754391, 33.481261)"><g><path d="M 6.875 -5 C 7.488281 -5 7.976562 -4.8125 8.34375 -4.4375 C 8.707031 -4.070312 8.890625 -3.554688 8.890625 -2.890625 L 8.890625 0 L 7.375 0 L 7.375 -2.6875 C 7.375 -3.007812 7.289062 -3.253906 7.125 -3.421875 C 6.957031 -3.597656 6.722656 -3.6875 6.421875 -3.6875 C 6.128906 -3.6875 5.894531 -3.597656 5.71875 -3.421875 C 5.550781 -3.253906 5.46875 -3.007812 5.46875 -2.6875 L 5.46875 0 L 3.96875 0 L 3.96875 -2.6875 C 3.96875 -3.007812 3.882812 -3.253906 3.71875 -3.421875 C 3.550781 -3.597656 3.316406 -3.6875 3.015625 -3.6875 C 2.722656 -3.6875 2.488281 -3.597656 2.3125 -3.421875 C 2.144531 -3.253906 2.0625 -3.007812 2.0625 -2.6875 L 2.0625 0 L 0.546875 0 L 0.546875 -4.953125 L 2.0625 -4.953125 L 2.0625 -4.328125 C 2.21875 -4.535156 2.421875 -4.695312 2.671875 -4.8125 C 2.921875 -4.9375 3.203125 -5 3.515625 -5 C 3.890625 -5 4.222656 -4.921875 4.515625 -4.765625 C 4.804688 -4.609375 5.035156 -4.378906 5.203125 -4.078125 C 5.367188 -4.347656 5.597656 -4.566406 5.890625 -4.734375 C 6.191406 -4.910156 6.519531 -5 6.875 -5 Z M 6.875 -5 "/></g></g></g><g fill="#ffffff" fill-opacity="1"><g transform="translate(111.978087, 33.481261)"><g><path d="M 2.796875 0.078125 C 2.316406 0.078125 1.882812 -0.0234375 1.5 -0.234375 C 1.113281 -0.441406 0.804688 -0.738281 0.578125 -1.125 C 0.359375 -1.507812 0.25 -1.957031 0.25 -2.46875 C 0.25 -2.976562 0.359375 -3.425781 0.578125 -3.8125 C 0.804688 -4.207031 1.113281 -4.503906 1.5 -4.703125 C 1.894531 -4.910156 2.335938 -5.015625 2.828125 -5.015625 C 3.304688 -5.015625 3.738281 -4.910156 4.125 -4.703125 C 4.519531 -4.503906 4.828125 -4.207031 5.046875 -3.8125 C 5.273438 -3.425781 5.390625 -2.976562 5.390625 -2.46875 C 5.390625 -1.96875 5.273438 -1.519531 5.046875 -1.125 C 4.828125 -0.738281 4.519531 -0.441406 4.125 -0.234375 C 3.726562 -0.0234375 3.285156 0.078125 2.796875 0.078125 Z M 2.796875 -1.25 C 3.085938 -1.25 3.335938 -1.351562 3.546875 -1.5625 C 3.753906 -1.769531 3.859375 -2.070312 3.859375 -2.46875 C 3.859375 -2.875 3.753906 -3.179688 3.546875 -3.390625 C 3.347656 -3.597656 3.109375 -3.703125 2.828125 -3.703125 C 2.523438 -3.703125 2.273438 -3.597656 2.078125 -3.390625 C 1.890625 -3.179688 1.796875 -2.875 1.796875 -2.46875 C 1.796875 -2.070312 1.890625 -1.769531 2.078125 -1.5625 C 2.273438 -1.351562 2.515625 -1.25 2.796875 -1.25 Z M 2.796875 -1.25 "/></g></g></g></svg>